<svg width="16" height="20" viewBox="0 0 16 20" fill="none" xmlns="http://www.w3.org/2000/svg">
<path fill-rule="evenodd" clip-rule="evenodd" d="M15.995 2.096C15.956 1.52721 15.7025 0.994443 15.2858 0.605369C14.869 0.216295 14.3201 -7.00219e-05 13.75 1.69987e-08H2.25L2.096 0.00500013C1.52721 0.0440221 0.994443 0.297514 0.605369 0.714247C0.216295 1.13098 -7.00219e-05 1.67987 1.69987e-08 2.25V17.755L0.00500013 17.909C0.0440221 18.4778 0.297514 19.0106 0.714247 19.3996C1.13098 19.7887 1.67987 20.0051 2.25 20.005H13.75L13.904 19.999C14.4726 19.96 15.0052 19.7066 15.3943 19.2901C15.7833 18.8736 15.9998 18.325 16 17.755V2.25L15.995 2.096ZM6.75 3C6.55109 3 6.36032 3.07902 6.21967 3.21967C6.07902 3.36032 6 3.55109 6 3.75C6 3.94891 6.07902 4.13968 6.21967 4.28033C6.36032 4.42098 6.55109 4.5 6.75 4.5H9.25C9.44891 4.5 9.63968 4.42098 9.78033 4.28033C9.92098 4.13968 10 3.94891 10 3.75C10 3.55109 9.92098 3.36032 9.78033 3.21967C9.63968 3.07902 9.44891 3 9.25 3H6.75Z" fill="url(#paint0_linear_49_14)"/>
<path fill-rule="evenodd" clip-rule="evenodd" d="M15.995 2.096C15.956 1.52721 15.7025 0.994443 15.2858 0.605369C14.869 0.216295 14.3201 -7.00219e-05 13.75 1.69987e-08H2.25L2.096 0.00500013C1.52721 0.0440221 0.994443 0.297514 0.605369 0.714247C0.216295 1.13098 -7.00219e-05 1.67987 1.69987e-08 2.25V17.755L0.00500013 17.909C0.0440221 18.4778 0.297514 19.0106 0.714247 19.3996C1.13098 19.7887 1.67987 20.0051 2.25 20.005H13.75L13.904 19.999C14.4726 19.96 15.0052 19.7066 15.3943 19.2901C15.7833 18.8736 15.9998 18.325 16 17.755V2.25L15.995 2.096ZM6.75 3C6.55109 3 6.36032 3.07902 6.21967 3.21967C6.07902 3.36032 6 3.55109 6 3.75C6 3.94891 6.07902 4.13968 6.21967 4.28033C6.36032 4.42098 6.55109 4.5 6.75 4.5H9.25C9.44891 4.5 9.63968 4.42098 9.78033 4.28033C9.92098 4.13968 10 3.94891 10 3.75C10 3.55109 9.92098 3.36032 9.78033 3.21967C9.63968 3.07902 9.44891 3 9.25 3H6.75Z" fill="url(#paint1_linear_49_14)" fill-opacity="0.7"/>
<path d="M10.75 12.996C11.44 12.996 12 13.556 12 14.246V14.745C12 16.591 10.528 17.499 8 17.499C5.472 17.499 4 16.59 4 14.743V14.246C4 13.556 4.56 12.996 5.25 12.996H10.75Z" fill="url(#paint2_linear_49_14)" fill-opacity="0.9"/>
<path d="M8 6.99597C8.66304 6.99597 9.29893 7.25936 9.76777 7.7282C10.2366 8.19705 10.5 8.83293 10.5 9.49597C10.5 10.159 10.2366 10.7949 9.76777 11.2637C9.29893 11.7326 8.66304 11.996 8 11.996C7.33696 11.996 6.70107 11.7326 6.23223 11.2637C5.76339 10.7949 5.5 10.159 5.5 9.49597C5.5 8.83293 5.76339 8.19705 6.23223 7.7282C6.70107 7.25936 7.33696 6.99597 8 6.99597Z" fill="url(#paint3_linear_49_14)" fill-opacity="0.9"/>
<defs>
<linearGradient id="paint0_linear_49_14" x1="-5.333" y1="-4.374" x2="14.824" y2="14.454" gradientUnits="userSpaceOnUse">
<stop stop-color="#36DFF1"/>
<stop offset="0.218" stop-color="#35DAF1"/>
<stop offset="1" stop-color="#2764E7"/>
</linearGradient>
<linearGradient id="paint1_linear_49_14" x1="10.476" y1="2.457" x2="16.452" y2="22.832" gradientUnits="userSpaceOnUse">
<stop offset="0.549" stop-color="#FF6CE8" stop-opacity="0"/>
<stop offset="1" stop-color="#FF6CE8"/>
</linearGradient>
<linearGradient id="paint2_linear_49_14" x1="14.004" y1="21.36" x2="9.237" y2="5.83197" gradientUnits="userSpaceOnUse">
<stop stop-color="#9DEAFF"/>
<stop offset="1" stop-color="white"/>
</linearGradient>
<linearGradient id="paint3_linear_49_14" x1="11.752" y1="16.281" x2="3.824" y2="1.74097" gradientUnits="userSpaceOnUse">
<stop stop-color="#9DEAFF"/>
<stop offset="1" stop-color="white"/>
</linearGradient>
</defs>
</svg>
